<?xml version="1.0" standalone="no"?>
<!DOCTYPE svg PUBLIC "-//W3C//DTD SVG 20010904//EN"
 "http://www.w3.org/TR/2001/REC-SVG-20010904/DTD/svg10.dtd">
<svg version="1.0" xmlns="http://www.w3.org/2000/svg"
 width="128.000000pt" height="128.000000pt" viewBox="0 0 128.000000 128.000000"
 preserveAspectRatio="xMidYMid meet">
<metadata>
Created by potrace 1.14, written by Peter Selinger 2001-2017
</metadata>
<g transform="translate(0.000000,128.000000) scale(0.100000,-0.100000)"
fill="#000000" stroke="none">
<path d="M90 845 c-19 -23 3 -65 34 -65 46 0 67 48 32 72 -18 13 -53 9 -66 -7z"/>
<path d="M278 823 c-43 -17 -45 -23 -22 -58 14 -21 19 -23 37 -13 62 33 127
14 127 -36 0 -38 -28 -54 -96 -55 -27 -1 -30 -4 -29 -31 1 -16 3 -31 6 -34 2
-2 26 -6 53 -9 72 -7 97 -56 47 -95 -16 -14 -97 -11 -149 4 -22 6 -23 4 -20
-31 3 -44 8 -46 113 -50 43 -2 82 3 103 11 41 18 73 69 70 112 -3 39 -40 82
-72 82 -18 0 -16 5 17 33 28 24 38 41 40 67 4 42 -15 85 -46 102 -33 18 -136
19 -179 1z"/>
<path d="M684 823 c-76 -39 -106 -97 -110 -208 -3 -66 1 -87 19 -123 30 -59
67 -81 132 -79 29 2 63 10 78 20 92 60 72 234 -29 253 -43 8 -79 -1 -105 -27
l-20 -20 4 29 c11 70 59 106 133 100 30 -2 44 1 45 9 5 60 7 58 -57 59 -36 1
-72 -4 -90 -13z m77 -219 c18 -22 17 -87 -1 -109 -10 -12 -22 -15 -44 -11 -39
8 -56 30 -56 72 0 54 69 86 101 48z"/>
<path d="M979 817 c-49 -33 -68 -91 -65 -202 4 -141 48 -205 143 -205 51 0
101 32 120 78 35 83 26 242 -19 302 -39 53 -122 66 -179 27z m108 -59 c17 -21
24 -68 24 -145 0 -87 -20 -133 -56 -133 -39 0 -55 42 -55 145 -1 106 16 145
61 145 9 0 21 -6 26 -12z"/>
<path d="M85 580 l0 -160 42 0 43 0 0 160 0 160 -42 0 -43 0 0 -160z"/>
</g>
</svg>
